<?xml version="1.0" encoding="utf-8"?>
<!-- Generator: Adobe Illustrator 25.3.1, SVG Export Plug-In . SVG Version: 6.00 Build 0)  -->
<svg version="1.1" id="Layer_1" xmlns="http://www.w3.org/2000/svg" xmlns:xlink="http://www.w3.org/1999/xlink" x="0px" y="0px"
	 viewBox="0 0 340.2 372.4" style="enable-background:new 0 0 340.2 372.4;" xml:space="preserve">
<style type="text/css">
	.st0{fill:#373737;}
</style>
<g>
	<g>
		<path class="st0" d="M133,128.6c2.5,10.6,19.3,7.1,20.3,0.8c2.2-13.4-0.9-27.5-1.6-38.3c-0.3-3.7,8.2-4.4,8.5-2.2
			c1.3,3.9,3.4,24.2,4.3,31.6c0.9,7.6,7.1,11.4,15,9.6c7.1-1.6,11.9-3.3,10.5-13.4c-4-28.1-3.3-56.4-3.8-84.5
			c-0.2-11.7-5.2-13.5-15.9-12.7c-13.1,1-14.8,6.5-14.5,18.1c0.3,9.8,1.2,28.2,1.5,33c0,4.4-7.7,4.2-7.8,1.2
			c-0.8-6.7-0.7-15.5-1.4-24.9c-0.7-9.1-1.8-18.4-6.1-19.5c-7.4-1.9-14.9,0.2-20.1,5.1c-2.6,2.5-3.3,11-2.1,19.3
			C123.6,78.5,128.9,111.2,133,128.6z"/>
		<path class="st0" d="M113.6,137.2c13-10.7,10.9-29.8-5-35.9c-4.2-1.6-8.7-2.1-13-3.4c-11.5-3.4-14.1-11.1-6-19.9
			c4.6-5.1,10.8-8.6,16.2-13c5.8-4.7,6.9-18.6,0.2-25.5c-2.8-2.9-11.1-3-15.6-1.1C71.5,46.2,57.8,60,49.8,79
			c-5.6,13.2-1.9,20.4,11.4,25.8c6.9,2.9,22,6.7,22,11.9c0.6,8.5-21.5,6.2-32.3,5.1c-8-0.8-14,1.8-15,11.4
			c-0.9,9.2,1.8,18.2,10.6,19.1C71.6,154.8,93.6,153.8,113.6,137.2z"/>
		<path class="st0" d="M180.5,329.5c-13.9,0-27.9,0.5-41.6-1.5c-16.3-2.4-19.6-11.9-9.5-24.9c7.5-9.7,16.3-18.4,23.5-28.3
			c3.2-4.5,6.8-8.3,4.9-15c-1.7-4.3-11.3-5.5-16.8-4.7c-17.8,2.6-29.9,5.4-47.5,8.8c-8,1.5-17.7,6.3-15.5,16.5
			c1.9,8.6,7.7,10.2,18.3,8.1c5-1,16.2-3,16.6,0c-0.7,6.3-12.2,17.2-16.8,24.8c-8.6,14.6-6.6,22,8.3,29.4
			c25.2,12.5,51.8,14.2,79,8.7c6.6-1.3,11-4.7,10-12.8C192.4,330.4,187.4,329.5,180.5,329.5z"/>
		<path class="st0" d="M221,265.6c-1.5-3.6-3.3-7.2-5.3-10.5c-11.6-18.6-25.2-22.1-33.6-6.1c-10.9,20.8-21.2,42.3-27.3,64.2
			c-0.6,2,0.1,9.3,7.7,10.3c10,1.3,17.3-1.4,18.6-11.5c0.9-7.8,5-9.9,11.9-11.2c17.1-3.1,16.3,10.7,19.9,20.3
			c2.1,5.6,2.5,15,13.1,12.1c11-3,13.5-10.1,10.5-20.5c-0.8-2.7-1.7-5.4-2.6-8c-0.4-1.2,0.2-2.6,1.3-3.1c18.8-9.3,21-11.7,14-22.6
			c-1.5-2.4-4.5-3.4-7.1-2.4C228.7,281.6,228.2,282.8,221,265.6z M187.4,283.9c2.2-7.9,3.9-13.5,5.4-19c0.3-1.2,1.4-2.1,2.7-2.1
			l1.3,0c1.3,0,2.3,0.9,2.8,2.1c2.2,5.7,5,14.8,4.1,18.3c-0.8,3.2-7.4,1.8-14.4,2.6C188.1,286,187,285.1,187.4,283.9z"/>
		<path class="st0" d="M110.1,241.7c10.3-21.6-29.1-39.1-31.8-55.6c0.7-5.8,12.8-8.2,26.2-9.8c6.4-0.8,14.2-1.7,13.8-10.7
			c-0.4-8.6-6.3-12.2-14.9-11.3c-15,1.6-27.8,4.8-40.9,10.9c-15.9,7.4-16.9,20.9-5.9,33.6c5.8,6.7,25.6,21.2,26.4,28.9
			c0.8,6.1-7.3,6.1-15.5,6.1c-12.4,5.9-3.6,22.9,8.8,23.1C83.3,257.4,101.6,259.4,110.1,241.7z"/>
		<path class="st0" d="M229.1,103.7c20.5-0.1,35.4-15.8,35.3-37.6c0-23.1-14.7-38.3-37.2-38.3C207,27.7,192.5,44,192.1,67
			C191.8,89.3,206.3,103.7,229.1,103.7z M229.8,50.7c9.7,0.4,14.2,8.8,12.7,19.6c-1.5,7.3-5.9,9.9-11,10.4
			c-9.5,1-14.6-6.2-14.7-15.6C216.7,56.8,221,50.4,229.8,50.7z"/>
		<path class="st0" d="M146.2,236.3c1.5,10.1,7.2,10.6,13.7,9.2c8.1-1.7,6.7-9.2,5.4-23c-2.2-22.7-4.5-38.4-6-62.9
			c-0.6-8.8-2.9-15.3-11.8-14.7c-9.3,0.6-11.9,4.5-12,15.3c-0.1,10.8,1.9,23,2.1,34.5c0.3,4.8-5.5,5.7-6.4,0.8
			c-0.8-3.4-0.4-9.9-2.4-12.2c-2.5-2.8-5.8-3.2-9-2.5c-8.1,1.8-6,12.6-5.6,15.2c2.5,17.2,3,27.1,6.1,44c1.1,5.9,3.1,9.2,9.4,8.5
			c8-0.9,7.1-4.9,7.1-9.7c-0.1-7.4-0.7-14.4-0.8-22.2c-0.6-5.2,7.1-6.4,7.9-1.1C144.5,220.8,145.2,229.4,146.2,236.3z"/>
		<path class="st0" d="M266,226.2c-24.2,0.2-22.9,0-23.2-16.4c-0.5-20.4-0.2-40.8,0-61.3c0.1-7.9-2.2-12.4-11.1-12
			c-8.4,0.4-12.8,3.3-12.5,12.5c0.5,14.3,1.3,71.4,1.3,85.7c0,7.3,2.3,13.7,10.4,14c13.9,0.6,27.7,0.5,41.6,0.2
			c9.7-0.2,11.1-6.4,10.4-14.1C282.2,226.3,275.2,226.1,266,226.2z"/>
		<path class="st0" d="M208.1,219.4c4.3-9.4,5.1-17,5.1-32c0-13.9-4.2-28.8-8.1-36.9c-3.3-6.9-9.7-11-16.5-11.1
			c-7.2-0.1-14.3,5.9-17.3,14.9c-5.5,16.7-4.4,44.5,3.8,65.7C181.2,235.2,201.2,234.6,208.1,219.4z M184.4,186.8
			c-1.1-12.5,1.5-17.4,4.8-17.4c3.8,0,7.6,4.4,7.9,18c0.2,7.8-0.4,21.2-5.7,21.1C185.9,208.7,185,193.5,184.4,186.8z"/>
		<path class="st0" d="M291,153c-3.6-8.3-9.3-14.5-18.6-14.5c-8.2,0-15.1,7.9-17.4,14.5c-6.1,17.7-4.3,36.1,1.4,51.8
			c2,5.5,8.6,12.8,16.4,12.8c6.8,0,12.2-3.9,15.6-10.5C293.9,196.9,298.1,169.4,291,153z M273.3,192.9c-8.1,0-8.4-31.5-0.4-31.5
			C281,161.3,280.2,192.9,273.3,192.9z"/>
		<path class="st0" d="M199.6,117c0,6.8,2.3,12.3,10.3,12.5c9.4,0.2,55-1,68.4-3.2c8.7-1.4,12.4-4.5,10.8-13.5
			c-1.5-8.2-5.5-11.1-13.7-9.2c-20.4,4.7-44.2,6.4-64.5,6.3C205.5,109.8,199.6,108.9,199.6,117z"/>
	</g>
</g>
</svg>
